<?xml version="1.0" standalone="yes"?>
<svg xmlns="http://www.w3.org/2000/svg" width="300" height="300">
<path style="fill:#141931; stroke:none;" d="M0 0L0 300L300 300L300 0L0 0z"/>
<path style="fill:#5ba9dd; stroke:none;" d="M194 24L162.975 125L147 180L238 180C235.744 191.976 233.852 204.02 231.611 216C230.9 219.803 231.117 226.499 228.258 229.397C224.026 233.687 208.718 231 203 231L130 231L116 280C175.368 292.247 236.505 270.905 267.138 216C304.481 149.071 275.262 43.2568 194 24M257 55L258 56L257 55M40 58L41 59L40 58M90.3333 69.6667L90.6667 70.3333L90.3333 69.6667z"/>
<path style="fill:#ebebed; stroke:none;" d="M62 231L185 231L216 231L228.258 229.972L231.611 217L238 180L131 180L137.424 146L151 69L108 69L91.7415 70.0278L88.6111 81L83.3889 111L62 231z"/>
<path style="fill:#5ba9dd; stroke:none;" d="M150 71L150 74L151 74L150 71M89 74L89 77L90 77L89 74M149 77L149 80L150 80L149 77M88.3333 80.6667L88.6667 81.3333L88.3333 80.6667M148.333 83.6667L148.667 84.3333L148.333 83.6667M87 85L87 88L88 88L87 85z"/>
<path style="fill:#c31a79; stroke:none;" d="M278 85L279 86L278 85z"/>
<path style="fill:#5ba9dd; stroke:none;" d="M147.333 89.6667L147.667 90.3333L147.333 89.6667M86 91L86 94L87 94L86 91M146 94L146 97L147 97L146 94M283 95L284 96L283 95M85.3333 97.6667L85.6667 98.3333L85.3333 97.6667M145.333 100.667L145.667 101.333L145.333 100.667M84 102L84 105L85 105L84 102M12 104L13 105L12 104M144.333 106.667L144.667 107.333L144.333 106.667M83 108L83 111L84 111L83 108M143 111L143 114L144 114L143 111M82.3333 114.667L82.6667 115.333L82.3333 114.667M289 116L290 117L289 116M142 117L142 120L143 120L142 117M81 119L81 122L82 122L81 119M141 122L141 125L142 125L141 122M80 125L80 128L81 128L80 125M140 128L140 131L141 131L140 128M79.3333 131.667L79.6667 132.333L79.3333 131.667M139.333 134.667L139.667 135.333L139.333 134.667M293 134L294 135L293 134M78 136L78 139L79 139L78 136M6.33333 139.667L6.66667 140.333L6.33333 139.667M138.333 140.667L138.667 141.333L138.333 140.667M77 142L77 145L78 145L77 142M137 145L137 148L138 148L137 145M76.3333 148.667L76.6667 149.333L76.3333 148.667M80 148L76 174L77 174L77 171C87.1416 175.27 104.849 172 116 172C119.491 172 127.511 170.211 128 174L129 174L134 149L133 148C118.534 151.444 94.4663 151.444 80 148M136.333 151.667L136.667 152.333L136.333 151.667M75 153L75 156L76 156L75 153M135.333 157.667L135.667 158.333L135.333 157.667M74 159L74 162L75 162L74 159z"/>
<path style="fill:#ebebed; stroke:none;" d="M7 161L8 162L7 161z"/>
<path style="fill:#5ba9dd; stroke:none;" d="M7 163L8 164L7 163M134.333 163.667L134.667 164.333L134.333 163.667M73.3333 165.667L73.6667 166.333L73.3333 165.667M292.333 167.667L292.667 168.333L292.333 167.667M133 168L133 171L134 171L133 168M7.33333 169.667L7.66667 170.333L7.33333 169.667M72 170L72 173L73 173L72 170M8.33333 174.667L8.66667 175.333L8.33333 174.667M132.333 174.667L132.667 175.333L132.333 174.667M71 176L71 179L72 179L71 176M131 179L132 180L131 179M70.3333 182.667L70.6667 183.333L70.3333 182.667M11 186L12 187L11 186M69 187L69 190L70 190L69 187z"/>
<path style="fill:#c31a79; stroke:none;" d="M11 188L12 189L11 188z"/>
<path style="fill:#5ba9dd; stroke:none;" d="M288 188L289 189L288 188z"/>
<path style="fill:#c31a79; stroke:none;" d="M288 190L289 191L288 190z"/>
<path style="fill:#5ba9dd; stroke:none;" d="M68 193L68 196L69 196L68 193M14 197L15 198L14 197M67.3333 199.667L67.6667 200.333L67.3333 199.667M18 200L19 201L18 200M16 201L17 202L16 201M16 203L17 204L16 203M283 203L284 204L283 203M66 204L66 207L67 207L66 204M21 207L22 208L21 207M279 207L280 208L279 207M281.333 207.667L281.667 208.333L281.333 207.667M278 209L279 210L278 209M22 210L23 211L22 210M65 210L65 213L66 213L65 210M20.3333 211.667L20.6667 212.333L20.3333 211.667M277 211L278 212L277 211M23 212L24 213L23 212M276 213L277 214L276 213M24 214L25 215L24 214M22 215L23 216L22 215M275 215L276 216L275 215M64.3333 216.667L64.6667 217.333L64.3333 216.667M277 216L278 217L277 216M279 216L280 217L279 216M26 217L28 220L26 217M274 217L272 221L273 221L274 217M24 219L25 220L24 219M25 221L26 222L25 221M28 221L29 222L28 221M63 221L63 224L64 224L63 221M271 222L272 223L271 222M29 223L31 225L29 223M24 224L25 225L24 224M270 224L269 226L270 224M31 226L35 241L39 239L40 243C39.9284 245.923 40.1078 246.687 43 247C44.9297 256.274 63.5691 271.871 73 273L74 276L79 276C82.4818 281.49 93.4889 286.272 100 286L109 289L109 291L133 294.715L165 294.961L201 288C209.854 280.229 227.001 280.575 233 269C245.723 267.867 265.937 245.299 267 233C259.658 234.912 254.241 244.809 249 249.996C239.012 259.882 227.558 268.429 215 274.752C167.846 298.496 112.31 295.662 69 264.572C53.7424 253.619 44.4394 238.283 31 226M29 227L30 228L29 227M62 227L62 230L63 230L62 227M268 227L265 232L268 227M273 227L274 228L273 227M270 228L268 236L269 236L271 232L270 228M28 229L29 230L28 229M272 229L273 230L272 229M31 230L31 232L33 232L31 230M31.3333 233.667L31.6667 234.333L31.3333 233.667z"/>
<path style="fill:#141931; stroke:none;" d="M35 233L40 239L35 233M264 234L264 238L265 238L264 234M261 238L262 239L261 238M40 240L44 245L42 245L46 249L44 245L46 246L40 240M259 240L260 241L259 240M258 242L260 244L260 242L258 242M261 242L262 243L261 242M254 246L254 247L257 249L258 249L259 246L256 245L254 246M254 248L255 249L254 248M252.333 250.667L252.667 251.333L252.333 250.667M249 253L250 254L249 253M53 256L54 257L53 256z"/>
<path style="fill:#c31a79; stroke:none;" d="M55 257L56 258L55 257z"/>
<path style="fill:#141931; stroke:none;" d="M55 258L56 259L55 258M61 262L62 263L61 262z"/>
<path style="fill:#ebebed; stroke:none;" d="M229 269L230 270L229 269z"/>
<path style="fill:#141931; stroke:none;" d="M71 272L72 273L71 272z"/>
<path style="fill:#ebebed; stroke:none;" d="M77 273L78 274L77 273z"/>
<path style="fill:#141931; stroke:none;" d="M88 279L89 280L88 279M100 284L101 285L100 284M112 289L113 290L112 289z"/>
<path style="fill:#01b301; stroke:none;" d="M121 290L122 291L121 290z"/>
<path style="fill:#141931; stroke:none;" d="M121 291L122 292L121 291M167.333 292.667L167.667 293.333L167.333 292.667z"/>
<path style="fill:#c31a79; stroke:none;" d="M174 292L175 293L174 292z"/>
</svg>
